PathFileType	4	(x/y/z)	S06_PSF_T05
DataRate	CameraRate	NumFrames	NumMarkers	Units	OrigDataRate	OrigDataStartFrame	OrigNumFrames
240	240	8	51	mm	240	100	397
Frame#	Time	Sternum			R.Acromium			L.Acromium			Top.Head			R.ASIS			L.ASIS			R.PSIS			L.PSIS			R.Great.Tro			L.Great.Tro			R.Iliac.Crest			L.Iliac.Crest			V.Sacral			R.Thigh.Upper.Post			R.Thigh.Lower.Ant			R.Thigh.Lower.Post			R.Thigh.Upper.Ant			R.Knee.Lat			R.Knee.Med			R.Shank.Upper.Post			R.Shank.Lower.Ant			R.Shank.Lower.Post			R.Shank.Upper.Ant			R.Ankle.Lat			R.Ankle.Med			R.Heel.Upper			R.Heel.Med			R.Heel.Lat			R.Toe.Lat			R.Toe.Med			R.Toe.Tip			L.Thigh.Upper.Post			L.Thigh.Lower.Ant			L.Thigh.Lower.Post			L.Thigh.Upper.Ant			L.Knee.Lat			L.Knee.Med			L.Shank.Upper.Post			L.Shank.Lower.Ant			L.Shank.Lower.Post			L.Shank.Upper.Ant			L.Ankle.Lat			L.Ankle.Med			L.Heel.Upper			L.Heel.Med			L.Heel.Lat			L.Toe.Lat			L.Toe.Med			L.Toe.Tip			Cervical.Spine			Back			
		X1	Y1	Z1	X2	Y2	Z2	X3	Y3	Z3	X4	Y4	Z4	X5	Y5	Z5	X6	Y6	Z6	X7	Y7	Z7	X8	Y8	Z8	X9	Y9	Z9	X10	Y10	Z10	X11	Y11	Z11	X12	Y12	Z12	X13	Y13	Z13	X14	Y14	Z14	X15	Y15	Z15	X16	Y16	Z16	X17	Y17	Z17	X18	Y18	Z18	X19	Y19	Z19	X20	Y20	Z20	X21	Y21	Z21	X22	Y22	Z22	X23	Y23	Z23	X24	Y24	Z24	X25	Y25	Z25	X26	Y26	Z26	X27	Y27	Z27	X28	Y28	Z28	X29	Y29	Z29	X30	Y30	Z30	X31	Y31	Z31	X32	Y32	Z32	X33	Y33	Z33	X34	Y34	Z34	X35	Y35	Z35	X36	Y36	Z36	X37	Y37	Z37	X38	Y38	Z38	X39	Y39	Z39	X40	Y40	Z40	X41	Y41	Z41	X42	Y42	Z42	X43	Y43	Z43	X44	Y44	Z44	X45	Y45	Z45	X46	Y46	Z46	X47	Y47	Z47	X48	Y48	Z48	X49	Y49	Z49	X50	Y50	Z50	X51	Y51	Z51	

100	0.4125	-925.79	1290.9	357.43	-1058	1495.1	524.48	-1053.1	1499.6	173.64	-1020.4	1814.1	345.87	-977.07	1058.8	476.63	-964.03	1055.8	223.87	-1166.5	1071.9	377.53	-1175	1079.9	298.26	-1026.1	982.57	526.34	-1069.7	981.6	168.51	-1070.1	1129.4	507.03	-1037.6	1129	187.6	-1188.8	1042.4	340.69	-928.1	754.73	516.9	-843.59	701.11	481.21	-902.5	668.62	498.09	-864.34	789.47	494.04	-844.27	575.8	487.96	-840.4	578.34	359.79	-889.43	353.03	496.31	-830.22	287.19	480.18	-895.28	275.9	484.93	-826.6	363.08	489.31	-867.84	144.02	466.17	-850.4	149.84	381.48	-927.83	97.187	414.52	-914.37	65.142	387.61	-921.32	68.268	451.51	-749.65	68.803	507.7	-713.97	71.038	390.7	-654.72	91.467	440.1	-1045.2	722.61	200.57	-1010.3	637.17	261.48	-1077.2	639.59	219.37	-981.73	725	236.89	-1113.7	545.83	236.67	-1090.4	551.58	358.23	-1201	326.32	253.34	-1146.8	255.8	259.84	-1218.9	257.28	273.24	-1134.3	323.96	245.78	-1195.5	114.24	279.33	-1186.8	133.59	368.47	-1282.8	80.905	320.43	-1280.5	49.279	349.87	-1274.3	55.485	288.3	-1093.8	45.772	260.64	-1081.4	39.854	381.53	-1004.7	48.876	331.84	-1108.6	1549.9	348.97	-1173.1	1280.1	341.59
101	0.41667	-920.49	1290.2	357.55	-1052.9	1494.4	524.54	-1047.6	1499	173.7	-1015.4	1813.5	346.09	-971.83	1058.1	476.76	-958.73	1054.9	223.96	-1161.2	1071.3	377.62	-1169.5	1079.3	298.38	-1021.1	981.82	526.5	-1064.6	980.94	168.64	-1064.8	1128.8	507.12	-1032.4	1128.3	187.66	-1183.4	1041.8	340.81	-924.56	753.56	517.05	-839.92	699.56	481.27	-899	667.31	498.14	-860.33	788.04	494.11	-840.44	574.53	487.8	-836.76	577.05	359.62	-880.2	350.65	495.53	-819.33	286.39	479.31	-884.06	273.45	483.95	-817.69	362.3	488.65	-853.07	142.14	464.72	-835.33	148.75	380.22	-911.62	93.905	412.88	-897.25	62.38	385.82	-904.36	64.938	449.72	-732.77	69.812	506.08	-697.22	73.688	389.26	-638.56	95.462	438.79	-1042.1	722.15	200.58	-1007.6	636.44	261.33	-1074.6	639.28	219.41	-978.68	724.12	236.81	-1111.6	545.69	236.71	-1088.3	551.28	358.19	-1200	326.52	253.51	-1146	255.81	259.93	-1218.1	257.58	273.43	-1133.2	323.89	245.84	-1195.7	114.26	279.59	-1186.4	133.74	368.59	-1282.7	81.07	320.65	-1280.4	49.4	350.05	-1274.3	55.689	288.5	-1093.8	45.77	260.69	-1081.4	39.791	381.56	-1004.7	48.693	331.86	-1103.4	1549.3	348.98	-1167.6	1279.4	341.55
102	0.42083	-915.16	1289.4	357.66	-1047.8	1493.7	524.61	-1042	1498.3	173.75	-1010.3	1812.8	346.32	-966.57	1057.4	476.89	-953.41	1054.1	224.04	-1156.1	1070.7	377.72	-1164.1	1078.6	298.51	-1016.1	981.05	526.66	-1059.4	980.27	168.78	-1059.5	1128.1	507.21	-1027.1	1127.5	187.72	-1177.9	1041.1	340.95	-921.11	752.35	517.27	-836.31	697.94	481.37	-895.57	665.94	498.24	-856.34	786.54	494.23	-836.74	573.19	487.66	-833.23	575.67	359.44	-871.12	348.34	494.71	-808.64	285.68	478.41	-873.02	271.12	482.93	-808.95	361.58	488	-838.49	140.46	463.24	-820.51	147.89	378.95	-895.58	90.854	411.22	-880.31	59.885	384.01	-887.56	61.845	447.9	-716.12	71.02	504.39	-680.8	76.603	387.76	-622.73	99.687	437.41	-1038.9	721.67	200.58	-1004.8	635.69	261.17	-1071.9	638.95	219.44	-975.59	723.24	236.71	-1109.5	545.55	236.76	-1086	550.97	358.14	-1198.9	326.73	253.67	-1145.2	255.83	260.02	-1217.3	257.88	273.62	-1132.1	323.83	245.91	-1195.8	114.3	279.84	-1186	133.9	368.71	-1282.6	81.249	320.88	-1280.3	49.537	350.24	-1274.2	55.903	288.7	-1093.8	45.767	260.73	-1081.3	39.731	381.58	-1004.6	48.512	331.88	-1098.1	1548.7	348.99	-1162.1	1278.7	341.51
103	0.425	-909.82	1288.6	357.78	-1042.6	1493	524.68	-1036.5	1497.6	173.81	-1005.2	1812.1	346.54	-961.31	1056.7	477.02	-948.08	1053.2	224.13	-1151.3	1070.2	377.84	-1158.6	1077.9	298.65	-1011.1	980.25	526.83	-1054.2	979.57	168.92	-1054.2	1127.4	507.31	-1021.9	1126.8	187.8	-1172.3	1040.4	341.1	-917.74	751.11	517.54	-832.75	696.25	481.5	-892.21	664.52	498.37	-852.37	784.97	494.4	-833.14	571.78	487.52	-829.79	574.23	359.25	-862.22	346.11	493.85	-798.17	285.06	477.51	-862.16	268.9	481.87	-800.41	360.9	487.34	-824.12	138.97	461.75	-805.95	147.24	377.68	-879.73	88.032	409.57	-863.59	57.655	382.18	-870.94	58.991	446.06	-699.75	72.413	502.65	-664.72	79.761	386.21	-607.26	104.12	435.97	-1035.7	721.17	200.57	-1002	634.92	261	-1069.2	638.61	219.46	-972.43	722.36	236.6	-1107.3	545.39	236.81	-1083.8	550.66	358.09	-1197.8	326.95	253.84	-1144.4	255.84	260.11	-1216.5	258.2	273.81	-1131	323.76	245.97	-1195.9	114.37	280.07	-1185.6	134.07	368.83	-1282.5	81.445	321.1	-1280.2	49.693	350.43	-1274.2	56.132	288.9	-1093.8	45.763	260.78	-1081.2	39.673	381.6	-1004.6	48.334	331.89	-1092.9	1548	349	-1156.6	1277.9	341.49
104	0.42917	-904.46	1287.8	357.89	-1037.4	1492.2	524.75	-1030.9	1496.9	173.87	-1000	1811.4	346.77	-956.03	1055.9	477.14	-942.73	1052.3	224.22	-1146.7	1069.6	377.97	-1153.1	1077.2	298.8	-1006	979.43	527.01	-1049	978.86	169.07	-1048.9	1126.7	507.42	-1016.6	1125.9	187.87	-1166.8	1039.7	341.27	-914.45	749.83	517.85	-829.22	694.49	481.65	-888.9	663.07	498.53	-848.4	783.35	494.62	-829.65	570.33	487.38	-826.45	572.73	359.03	-853.49	343.95	492.96	-787.93	284.52	476.61	-851.51	266.82	480.77	-792.06	360.26	486.69	-810	137.68	460.26	-791.68	146.79	376.41	-864.11	85.439	407.92	-847.12	55.683	380.35	-854.54	56.377	444.22	-683.67	73.977	500.85	-649.03	83.137	384.62	-592.17	108.73	434.5	-1032.5	720.66	200.55	-999.15	634.15	260.82	-1066.4	638.25	219.49	-969.22	721.47	236.47	-1105.1	545.23	236.87	-1081.4	550.33	358.04	-1196.6	327.17	254.01	-1143.5	255.86	260.2	-1215.6	258.53	273.99	-1129.9	323.69	246.03	-1195.9	114.47	280.3	-1185.2	134.25	368.95	-1282.4	81.661	321.32	-1280.1	49.874	350.62	-1274.1	56.378	289.09	-1093.8	45.759	260.83	-1081.2	39.619	381.62	-1004.5	48.157	331.9	-1087.6	1547.4	349.01	-1151	1277.1	341.48
105	0.43333	-899.09	1287	357.99	-1032.2	1491.4	524.83	-1025.4	1496.2	173.93	-994.91	1810.7	347	-950.74	1055.1	477.26	-937.38	1051.4	224.32	-1142.5	1069.1	378.11	-1147.7	1076.5	298.96	-1000.9	978.59	527.19	-1043.8	978.13	169.22	-1043.5	1126	507.54	-1011.3	1125.1	187.96	-1161.2	1038.9	341.44	-911.2	748.52	518.2	-825.72	692.69	481.83	-885.64	661.58	498.71	-844.44	781.67	494.9	-826.23	568.83	487.23	-823.19	571.2	358.79	-844.95	341.87	492.04	-777.92	284.07	475.7	-841.07	264.85	479.64	-783.92	359.67	486.05	-796.14	136.56	458.77	-777.73	146.54	375.15	-848.74	83.071	406.3	-830.95	53.96	378.52	-838.4	54.001	442.38	-667.92	75.697	499.02	-633.73	86.7	383.02	-577.49	113.49	433	-1029.2	720.14	200.53	-996.23	633.37	260.64	-1063.6	637.89	219.51	-965.95	720.59	236.34	-1102.8	545.06	236.93	-1079	549.99	358	-1195.4	327.41	254.19	-1142.6	255.87	260.29	-1214.7	258.88	274.18	-1128.7	323.62	246.1	-1195.8	114.59	280.51	-1184.8	134.45	369.07	-1282.3	81.902	321.54	-1280	50.082	350.81	-1274	56.646	289.29	-1093.8	45.755	260.87	-1081.1	39.569	381.64	-1004.4	47.982	331.91	-1082.4	1546.7	349.04	-1145.4	1276.2	341.48
106	0.4375	-893.69	1286.2	358.1	-1026.9	1490.5	524.91	-1019.8	1495.4	173.99	-989.76	1809.9	347.22	-945.43	1054.2	477.38	-932.02	1050.5	224.42	-1138.5	1068.6	378.25	-1142.2	1075.7	299.14	-995.83	977.73	527.39	-1038.6	977.39	169.37	-1038.1	1125.3	507.66	-1006	1124.2	188.05	-1155.6	1038.1	341.64	-907.98	747.19	518.57	-822.24	690.84	482.01	-882.4	660.06	498.89	-840.47	779.96	495.22	-822.9	567.3	487.07	-819.98	569.63	358.51	-836.6	339.87	491.09	-768.17	283.69	474.81	-830.86	263.01	478.47	-775.98	359.13	485.41	-782.56	135.62	457.29	-764.12	146.47	373.91	-833.67	80.922	404.69	-815.09	52.476	376.7	-822.55	51.858	440.56	-652.54	77.555	497.17	-618.87	90.417	381.4	-563.23	118.37	431.49	-1025.9	719.62	200.5	-993.26	632.57	260.45	-1060.7	637.52	219.53	-962.61	719.71	236.19	-1100.4	544.88	237.01	-1076.5	549.65	357.98	-1194.2	327.65	254.37	-1141.7	255.89	260.39	-1213.7	259.24	274.36	-1127.4	323.56	246.17	-1195.7	114.75	280.71	-1184.4	134.65	369.2	-1282.1	82.171	321.76	-1279.9	50.322	350.99	-1273.9	56.941	289.49	-1093.7	45.751	260.92	-1081	39.525	381.65	-1004.4	47.806	331.9	-1077.1	1545.9	349.07	-1139.8	1275.4	341.5
107	0.44167	-888.29	1285.4	358.2	-1021.7	1489.7	524.99	-1014.3	1494.7	174.05	-984.58	1809.2	347.45	-940.12	1053.4	477.51	-926.66	1049.5	224.53	-1134.9	1068.2	378.39	-1136.8	1074.9	299.32	-990.71	976.87	527.59	-1033.3	976.63	169.53	-1032.7	1124.5	507.79	-1000.7	1123.3	188.16	-1150	1037.3	341.84	-904.77	745.84	518.95	-818.76	688.97	482.19	-879.19	658.53	499.06	-836.5	778.21	495.57	-819.62	565.74	486.89	-816.83	568.06	358.2	-828.44	337.97	490.12	-758.66	283.39	473.92	-820.9	261.28	477.29	-768.26	358.63	484.78	-769.31	134.85	455.83	-750.87	146.55	372.68	-818.92	78.984	403.12	-799.59	51.216	374.91	-807.03	49.941	438.77	-637.54	79.532	495.32	-604.46	94.252	379.79	-549.43	123.32	429.97	-1022.5	719.08	200.48	-990.22	631.78	260.27	-1057.8	637.14	219.56	-959.2	718.83	236.04	-1098	544.7	237.09	-1073.9	549.31	357.97	-1192.9	327.92	254.55	-1140.7	255.92	260.49	-1212.7	259.62	274.54	-1126.1	323.5	246.24	-1195.5	114.95	280.9	-1183.9	134.88	369.33	-1282	82.474	321.98	-1279.8	50.6	351.18	-1273.9	57.266	289.68	-1093.7	45.748	260.96	-1080.9	39.487	381.67	-1004.3	47.629	331.9	-1071.8	1545.2	349.1	-1134.2	1274.5	341.52
